<svg width="50" height="50" viewBox="0 0 50 50" fill="none" xmlns="http://www.w3.org/2000/svg">
<g id="24 / basic / book">
<path id="icon" fill-rule="evenodd" clip-rule="evenodd" d="M43.75 45.8333H12.5C9.04822 45.8333 6.25 43.0351 6.25 39.5833V10.4167C6.25 6.9649 9.04822 4.16669 12.5 4.16669H43.75V37.5C42.5994 37.5 41.6667 38.4327 41.6667 39.5833C41.6667 40.7339 42.5994 41.6666 43.75 41.6666V45.8333ZM37.5 39.5833C37.5 38.8528 37.6253 38.1516 37.8556 37.5H12.5C11.3494 37.5 10.4167 38.4327 10.4167 39.5833C10.4167 40.7339 11.3494 41.6666 12.5 41.6666H37.8556C37.6253 41.015 37.5 40.3138 37.5 39.5833ZM12.5 8.33335H39.5833V33.3335H12.5C11.7695 33.3335 11.0683 33.4588 10.4167 33.6891V10.4167C10.4167 9.2661 11.3494 8.33335 12.5 8.33335Z" fill="#212529"/>
</g>
</svg>
