<svg width="50" height="50" viewBox="0 0 50 50" fill="none" xmlns="http://www.w3.org/2000/svg">
<g id="24 / music / CD">
<path id="icon" fill-rule="evenodd" clip-rule="evenodd" d="M25 47.9167C12.3435 47.9167 2.08331 37.6565 2.08331 25C2.08331 12.3435 12.3435 2.08333 25 2.08333C37.6565 2.08333 47.9166 12.3435 47.9166 25C47.9166 37.6565 37.6565 47.9167 25 47.9167ZM25 43.75C35.3553 43.75 43.75 35.3553 43.75 25C43.75 14.6447 35.3553 6.24999 25 6.24999C14.6446 6.24999 6.24998 14.6447 6.24998 25C6.24998 35.3553 14.6446 43.75 25 43.75ZM25 10.4167V14.5833C30.7529 14.5833 35.4166 19.247 35.4166 25H39.5833C39.5833 16.9458 33.0541 10.4167 25 10.4167ZM25 31.25C21.5482 31.25 18.75 28.4518 18.75 25C18.75 21.5482 21.5482 18.75 25 18.75C28.4518 18.75 31.25 21.5482 31.25 25C31.25 28.4518 28.4518 31.25 25 31.25ZM27.0833 25C27.0833 26.1506 26.1506 27.0833 25 27.0833C23.8494 27.0833 22.9166 26.1506 22.9166 25C22.9166 23.8494 23.8494 22.9167 25 22.9167C26.1506 22.9167 27.0833 23.8494 27.0833 25Z" fill="#F6FFFF"/>
</g>
</svg>
