<svg width="40" height="40" viewBox="0 0 40 40" fill="none" xmlns="http://www.w3.org/2000/svg">
<g id="24 / music / equalizer">
<path id="icon" fill-rule="evenodd" clip-rule="evenodd" d="M26.6667 10V13.3333H36.6667V10H26.6667ZM0 16.6667V20H10V16.6667H0ZM0 26.6667V23.3333H10V26.6667H0ZM0 30V33.3333H10V30H0ZM0 36.6667V40H10V36.6667H0ZM13.3333 40V36.6667H23.3333V40H13.3333ZM13.3333 30V33.3333H23.3333V30H13.3333ZM13.3333 26.6667V23.3333H23.3333V26.6667H13.3333ZM26.6667 36.6667V40H36.6667V36.6667H26.6667ZM26.6667 33.3333V30H36.6667V33.3333H26.6667ZM26.6667 23.3333V26.6667H36.6667V23.3333H26.6667ZM26.6667 20V16.6667H36.6667V20H26.6667Z" fill="#F6FFFF"/>
</g>
</svg>
