<svg width="24" height="24" viewBox="0 0 24 24" fill="none" xmlns="http://www.w3.org/2000/svg">
<path fill-rule="evenodd" clip-rule="evenodd" d="M21 5.95825C21.009 6.56525 20.933 7.32625 20.866 7.88125C20.8448 8.0646 20.8114 8.24634 20.766 8.42525C21.622 10.0103 22 11.9173 22 14.0003C22 16.4683 20.813 18.5013 18.964 19.8873C17.132 21.2603 14.66 22.0003 12 22.0003C9.34 22.0003 6.868 21.2603 5.036 19.8873C3.187 18.5013 2 16.4683 2 14.0003C2 11.9173 2.377 10.0103 3.235 8.42525C3.18965 8.24634 3.15625 8.0646 3.135 7.88125C3.066 7.32625 2.99 6.56525 3 5.95825C3.01 5.27525 3.1 4.59225 3.199 3.91425C3.245 3.60025 3.317 3.30525 3.658 3.11925C4.006 2.92925 4.372 2.99925 4.733 3.10225C5.951 3.44725 7.093 3.93225 8.167 4.51225C9.3 4.17325 10.578 4.00025 12 4.00025C13.422 4.00025 14.7 4.17325 15.832 4.51325C16.9211 3.91786 18.0728 3.44497 19.266 3.10325C19.627 3.00025 19.994 2.92925 20.341 3.11925C20.681 3.30525 20.754 3.60025 20.801 3.91425C20.899 4.59225 20.99 5.27525 21 5.95825ZM20 14.0003C20 12.3133 19.612 10.0003 17.5 10.0003C16.548 10.0003 15.647 10.2503 14.747 10.5003C13.848 10.7503 12.95 11.0003 12 11.0003C11.05 11.0003 10.152 10.7503 9.253 10.5003C8.353 10.2503 7.453 10.0003 6.5 10.0003C4.394 10.0003 4 12.3203 4 14.0003C4 15.7643 4.827 17.2313 6.236 18.2873C7.66 19.3563 9.69 20.0003 12 20.0003C14.31 20.0003 16.339 19.3553 17.764 18.2873C19.173 17.2303 20 15.7643 20 14.0003ZM10 14.5003C10 15.8803 9.328 17.0003 8.5 17.0003C7.672 17.0003 7 15.8803 7 14.5003C7 13.1203 7.672 12.0003 8.5 12.0003C9.328 12.0003 10 13.1203 10 14.5003ZM15.5 17.0003C16.328 17.0003 17 15.8803 17 14.5003C17 13.1203 16.328 12.0003 15.5 12.0003C14.672 12.0003 14 13.1203 14 14.5003C14 15.8803 14.672 17.0003 15.5 17.0003Z" fill="#2FBB4F"/>
</svg>
