<svg width="50" height="50" viewBox="0 0 50 50" fill="none" xmlns="http://www.w3.org/2000/svg">
<g id="24 / basic / glasses">
<path id="icon" fill-rule="evenodd" clip-rule="evenodd" d="M2.08333 27.0833C0.93274 27.0833 0 26.1506 0 25C0 23.8494 0.93274 22.9167 2.08333 22.9167H2.95009C4.5575 19.2377 8.2285 16.6667 12.5 16.6667C16.3008 16.6667 19.6262 18.7023 21.4454 21.7429C22.4678 21.1626 23.701 20.8333 25 20.8333C26.299 20.8333 27.5322 21.1626 28.5546 21.7429C30.3738 18.7023 33.6992 16.6667 37.5 16.6667C41.7715 16.6667 45.4425 19.2377 47.0499 22.9167H47.9167C49.0673 22.9167 50 23.8494 50 25C50 26.1506 49.0673 27.0833 47.9167 27.0833C47.9167 32.8363 43.253 37.5 37.5 37.5C31.747 37.5 27.0833 32.8363 27.0833 27.0833C27.0833 26.7318 27.1007 26.3843 27.1348 26.0417H27.0833C27.0833 25.6179 26.2595 25 25 25C23.7405 25 22.9167 25.6179 22.9167 26.0417H22.8652C22.8993 26.3843 22.9167 26.7318 22.9167 27.0833C22.9167 32.8363 18.253 37.5 12.5 37.5C6.74703 37.5 2.08333 32.8363 2.08333 27.0833ZM12.5 33.3333C15.9518 33.3333 18.75 30.5351 18.75 27.0833C18.75 23.6316 15.9518 20.8333 12.5 20.8333C9.04822 20.8333 6.25 23.6316 6.25 27.0833C6.25 30.5351 9.04822 33.3333 12.5 33.3333ZM43.75 27.0833C43.75 30.5351 40.9518 33.3333 37.5 33.3333C34.0482 33.3333 31.25 30.5351 31.25 27.0833C31.25 23.6316 34.0482 20.8333 37.5 20.8333C40.9518 20.8333 43.75 23.6316 43.75 27.0833Z" fill="#F6FFFF"/>
</g>
</svg>
