<svg width="24" height="24" viewBox="0 0 24 24" fill="none" xmlns="http://www.w3.org/2000/svg">
<path fill-rule="evenodd" clip-rule="evenodd" d="M12 5.00001C11.0354 4.99978 10.085 5.23211 9.2293 5.67731C8.3736 6.12251 7.63785 6.76745 7.08441 7.55748C6.53098 8.3475 6.17617 9.2593 6.05006 10.2156C5.92396 11.1719 6.03028 12.1445 6.36001 13.051C6.57164 13.017 6.78565 12.9999 7.00001 13H8.00001C8.26522 13 8.51958 13.1054 8.70711 13.2929C8.89465 13.4804 9.00001 13.7348 9.00001 14V20C9.00001 20.2652 8.89465 20.5196 8.70711 20.7071C8.51958 20.8947 8.26522 21 8.00001 21H7.00001C6.16848 21 5.35763 20.7408 4.68025 20.2585C4.00286 19.7762 3.49261 19.0949 3.22047 18.3091C2.94833 17.5234 2.92783 16.6724 3.16181 15.8744C3.39579 15.0765 3.87263 14.3713 4.52601 13.857C4.06386 12.6457 3.90305 11.3402 4.05741 10.0529C4.21178 8.76558 4.6767 7.5351 5.41214 6.46737C6.14758 5.39964 7.13152 4.52665 8.27922 3.92356C9.42692 3.32048 10.704 3.00537 12.0005 3.00537C13.297 3.00537 14.5741 3.32048 15.7218 3.92356C16.8695 4.52665 17.8534 5.39964 18.5889 6.46737C19.3243 7.5351 19.7892 8.76558 19.9436 10.0529C20.098 11.3402 19.9372 12.6457 19.475 13.857C20.1284 14.3714 20.6053 15.0767 20.8393 15.8747C21.0732 16.6727 21.0526 17.5238 20.7804 18.3096C20.5081 19.0954 19.9977 19.7768 19.3202 20.259C18.6426 20.7412 17.8316 21.0002 17 21H15.999C15.7338 21 15.4794 20.8947 15.2919 20.7071C15.1044 20.5196 14.999 20.2652 14.999 20V14C14.999 13.7348 15.1044 13.4804 15.2919 13.2929C15.4794 13.1054 15.7338 13 15.999 13H16.999C17.217 13 17.431 13.018 17.639 13.051C17.9687 12.1446 18.075 11.1721 17.949 10.2159C17.8229 9.25963 17.4682 8.34788 16.9149 7.55789C16.3616 6.76789 15.6259 6.12292 14.7704 5.67766C13.9148 5.23239 12.9645 4.99994 12 5.00001ZM7.00001 15C6.46957 15 5.96087 15.2107 5.58579 15.5858C5.21072 15.9609 5.00001 16.4696 5.00001 17C5.00001 17.5304 5.21072 18.0392 5.58579 18.4142C5.96087 18.7893 6.46957 19 7.00001 19V15ZM17 15V19C17.5304 19 18.0391 18.7893 18.4142 18.4142C18.7893 18.0392 19 17.5304 19 17C19 16.4696 18.7893 15.9609 18.4142 15.5858C18.0391 15.2107 17.5304 15 17 15Z" fill="#FF5501"/>
</svg>
