<svg width="40" height="40" viewBox="0 0 40 40" fill="none" xmlns="http://www.w3.org/2000/svg">
<path fill-rule="evenodd" clip-rule="evenodd" d="M28.8746 0C30.1841 0 31.4394 0.522779 32.3561 1.44668L38.5579 7.64775C39.4813 8.571 40 9.82319 40 11.1289C40 12.4345 39.4813 13.6867 38.5579 14.61L15.915 37.2432C14.518 38.8545 12.5378 39.8444 10.2692 40H0V38.0002L0.00649528 29.5712C0.176876 27.4625 1.15733 25.5017 2.65299 24.184L25.3907 1.44909C26.3127 0.521598 27.5666 0 28.8746 0ZM10.1279 36.0055C11.1964 35.9298 12.191 35.4326 12.9896 34.5192L28.1134 19.3971L20.6047 11.889L5.3922 27.096C4.5819 27.8126 4.08062 28.8151 4 29.7322V36.0017L10.1279 36.0055ZM23.4334 9.0612L30.9418 16.569L35.7295 11.7819C35.9027 11.6087 36 11.3738 36 11.1289C36 10.8839 35.9027 10.649 35.7295 10.4759L29.5222 4.26922C29.3509 4.09662 29.1178 3.99954 28.8746 3.99954C28.6315 3.99954 28.3984 4.09662 28.2271 4.26922L23.4334 9.0612Z" fill="#F6FFFF"/>
</svg>
