<svg width="60" height="60" viewBox="0 0 60 60" fill="none" xmlns="http://www.w3.org/2000/svg">
<path fill-rule="evenodd" clip-rule="evenodd" d="M2.49998 30C2.49998 45.1878 14.8122 57.5 30 57.5C45.1878 57.5 57.5 45.1878 57.5 30C57.5 14.8122 45.1878 2.5 30 2.5C14.8122 2.5 2.49998 14.8122 2.49998 30ZM52.5 30C52.5 42.4264 42.4264 52.5 30 52.5C17.5736 52.5 7.5 42.4264 7.5 30C7.5 17.5736 17.5736 7.5 30 7.5C42.4264 7.5 52.5 17.5736 52.5 30ZM22.5 17.5H27.5V42.5H22.5V17.5ZM37.5 17.5H32.5V42.5H37.5V17.5Z" fill="#A7D1C9"/>
</svg>
