<svg width="60" height="60" viewBox="0 0 60 60" fill="none" xmlns="http://www.w3.org/2000/svg">
<g id="24 / music / repeat">
<path id="icon" fill-rule="evenodd" clip-rule="evenodd" d="M35.7322 6.76777L41.467 12.5025H20C13.0964 12.5025 7.5 18.0989 7.5 25.0025V32.5025H12.5V25.0025C12.5 20.8604 15.8579 17.5025 20 17.5025H41.462L35.7322 23.2322L39.2678 26.7678L51.0355 15L39.2678 3.23224L35.7322 6.76777ZM24.2678 53.2322L18.5356 47.5H40C46.9036 47.5 52.5 41.9036 52.5 35V27.5H47.5V35C47.5 39.1421 44.1422 42.5 40 42.5H18.5356L24.2678 36.7678L20.7323 33.2322L8.96451 45L20.7323 56.7678L24.2678 53.2322Z" fill="#A7D1C9"/>
</g>
</svg>
