<svg width="28" height="27" viewBox="0 0 28 27" fill="none" xmlns="http://www.w3.org/2000/svg">
<path fill-rule="evenodd" clip-rule="evenodd" d="M21.646 7.66663L20.8052 7.66661C17.8592 7.69404 16.6638 8.9534 14.7381 13.1556C14.5217 13.629 14.4066 13.8805 14.2989 14.1133C11.7149 19.6963 9.07207 22.1609 3.29167 22.25H0.375V19.3333L3.26916 19.3335C7.66344 19.2657 9.48763 17.5645 11.6519 12.8882C11.7566 12.662 11.8686 12.4173 12.0866 11.9405C14.4388 6.80761 16.3527 4.79127 20.7917 4.75H21.6459L19.7605 2.86453L21.8229 0.802139L27.2291 6.20834L21.8229 11.6145L19.7605 9.55214L21.646 7.66663ZM21.6459 22.25H20.7916C17.9727 22.2238 16.1721 21.4011 14.6309 19.4896C15.203 18.667 15.7402 17.7539 16.2576 16.7498C17.4831 18.6621 18.6951 19.3138 20.8052 19.3334L21.6459 19.3334L19.7604 17.4479L21.8228 15.3855L27.229 20.7917L21.8228 26.1979L19.7604 24.1355L21.6459 22.25ZM3.26916 7.6665C6.24061 7.71237 8.03687 8.50512 9.55777 10.4596C10.0358 9.43183 10.511 8.50143 11.001 7.66548C9.12209 5.72124 6.77734 4.80371 3.29167 4.75H0.375V7.66667L3.26916 7.6665Z" fill="#D6E1EF"/>
</svg>
