<svg width="60" height="60" viewBox="0 0 60 60" fill="none" xmlns="http://www.w3.org/2000/svg">
<g id="24 / music / shuffle">
<path id="icon" fill-rule="evenodd" clip-rule="evenodd" d="M43.9645 19.9999L42.5233 19.9999C37.4729 20.0469 35.4237 22.2058 32.1224 29.4096C31.7515 30.2211 31.5542 30.6522 31.3695 31.0513C26.9398 40.6222 22.4093 44.8473 12.5 45H7.5V40L12.4614 40.0003C19.9945 39.884 23.1217 36.9676 26.8319 28.9512C27.0114 28.5634 27.2033 28.144 27.577 27.3265C31.6094 18.5273 34.8903 15.0707 42.5 15H43.9645L40.7322 11.7678L44.2678 8.23224L53.5355 17.5L44.2678 26.7678L40.7322 23.2322L43.9645 19.9999ZM43.9645 45H42.5C37.6675 44.9551 34.5808 43.5447 31.9387 40.2679C32.9196 38.8576 33.8404 37.2924 34.7274 35.5711C36.8282 38.8493 38.9059 39.9664 42.5233 40.0001L43.9645 40.0001L40.7322 36.7678L44.2678 33.2322L53.5355 42.5L44.2678 51.7678L40.7322 48.2322L43.9645 45ZM12.4614 19.9997C17.5553 20.0784 20.6346 21.4373 23.2419 24.7879C24.0614 23.026 24.876 21.431 25.716 19.998C22.495 16.665 18.4754 15.0921 12.5 15H7.5V20L12.4614 19.9997Z" fill="#A7D1C9"/>
</g>
</svg>
