<svg width="41" height="40" viewBox="0 0 41 40" fill="none" xmlns="http://www.w3.org/2000/svg">
<g id="24 / music / tuner">
<path id="icon" fill-rule="evenodd" clip-rule="evenodd" d="M13.6666 9.99999H10.3333V3.33333H13.6666V9.99999ZM13.6666 36.6667V20H15.3333C17.1742 20 18.6666 18.5076 18.6666 16.6667V15C18.6666 13.159 17.1742 11.6667 15.3333 11.6667H8.66659C6.82564 11.6667 5.33325 13.159 5.33325 15V16.6667C5.33325 18.5076 6.82564 20 8.66659 20H10.3333V36.6667H13.6666ZM30.3333 36.6667V28.3333H31.9999C33.8409 28.3333 35.3333 26.8409 35.3333 25V23.3333C35.3333 21.4924 33.8409 20 31.9999 20H25.3333C23.4923 20 21.9999 21.4924 21.9999 23.3333V25C21.9999 26.8409 23.4923 28.3333 25.3333 28.3333H26.9999V36.6667H30.3333ZM26.9999 18.3333H30.3333V3.33333H26.9999V18.3333ZM8.66658 15V16.6667H15.3333V15H8.66658ZM25.3333 25V23.3333H31.9999V25H25.3333Z" fill="white"/>
</g>
</svg>
