<svg width="50" height="50" viewBox="0 0 50 50" fill="none" xmlns="http://www.w3.org/2000/svg">
<g id="24 / music / volume-high">
<path id="icon" fill-rule="evenodd" clip-rule="evenodd" d="M16.6666 17.9542L24.9999 13.7876V36.2124L16.6666 32.0458V17.9542ZM14.0914 14.5833L29.1666 7.04576V42.9542L14.0915 35.4167H6.24998C3.94879 35.4167 2.08331 33.5512 2.08331 31.25V18.75C2.08331 16.4488 3.94879 14.5833 6.24998 14.5833H14.0914ZM12.5 18.75H6.24998V31.25H12.5V18.75ZM40.998 7.20151C45.2366 11.4182 47.9165 17.8502 47.9165 25C47.9165 32.1498 45.2366 38.5818 40.998 42.7985L37.7147 40.1719C41.3514 36.7784 43.7498 31.2754 43.7498 25C43.7498 18.7247 41.3514 13.2216 37.7147 9.8281L40.998 7.20151ZM39.5834 25C39.5834 19.9778 37.6352 15.4425 34.5308 12.3754L31.2443 15.0045C33.765 17.2744 35.4167 20.8868 35.4167 25C35.4167 29.1132 33.765 32.7256 31.2443 34.9954L34.5308 37.6246C37.6352 34.5575 39.5834 30.0222 39.5834 25Z" fill="#A7D1C9"/>
</g>
</svg>
