<svg width="50" height="50" viewBox="0 0 50 50" fill="none" xmlns="http://www.w3.org/2000/svg">
<path fill-rule="evenodd" clip-rule="evenodd" d="M5.63981 2.69354L2.69353 5.63982L11.637 14.5833H6.24992C3.94873 14.5833 2.08325 16.4488 2.08325 18.75V31.25C2.08325 33.5512 3.94873 35.4167 6.24992 35.4167H14.0914L29.1665 42.9542V32.1128L44.3602 47.3065L47.3065 44.3602L5.63981 2.69354ZM24.9999 27.9462L16.6666 19.6129V32.0458L24.9999 36.2124V27.9462ZM24.9999 13.7876V16.2205L29.1665 20.3872V7.04575L20.2722 11.4929L23.3779 14.5986L24.9999 13.7876ZM35.3364 26.5571L38.8859 30.1066C39.3389 28.4944 39.583 26.7777 39.583 25C39.583 19.9778 37.6349 15.4425 34.5304 12.3754L31.244 15.0045C33.7647 17.2744 35.4164 20.8868 35.4164 25C35.4164 25.5279 35.3892 26.0475 35.3364 26.5571ZM42.1961 33.4168L45.3575 36.5782C46.9872 33.1716 47.9165 29.2102 47.9165 25C47.9165 17.8502 45.2365 11.4182 40.9979 7.20151L37.7147 9.82809C41.3514 13.2216 43.7498 18.7246 43.7498 25C43.7498 28.037 43.188 30.8931 42.1961 33.4168ZM12.4999 18.75H6.24992V31.25H12.4999V18.75Z" fill="#A7D1C9"/>
</svg>
